<svg width="200" height="150" viewBox="0 0 200 150" fill="none" xmlns="http://www.w3.org/2000/svg">
<g clip-path="url(#clip0)">
<path d="M121.776 86.5403L123.92 93.9149L126.064 101.29H121.776H117.487L119.631 93.9149L121.776 86.5403Z" fill="#3AD29F"/>
<path d="M125.998 85.5413L128.14 92.9159L130.284 100.293H125.998H121.709L123.853 92.9159L125.998 85.5413Z" fill="#3AD29F"/>
<path d="M130.218 85.5413L132.362 92.9159L134.506 100.293H130.218H125.929L128.073 92.9159L130.218 85.5413Z" fill="#3AD29F"/>
<path d="M162.817 90.0441L164.961 97.4188L167.106 104.796H162.817H158.529L160.673 97.4188L162.817 90.0441Z" fill="#3AD29F"/>
<path d="M25.6804 82.7882L29.3515 89.5436L33.0226 96.2989L28.8347 97.2024L24.6447 98.1081L25.1615 90.4471L25.6804 82.7882Z" fill="#3AD29F"/>
<path d="M0 149.972L8.11524 112.007L14.0949 104.159L20.0745 93.9785L31.1796 87.4035L39.5084 82.7373L42.9253 92.918L49.4901 97.283L53.6033 103.311L60.01 101.19L68.1253 94.6148L74.3185 92.918L83.0744 87.4035L91.1896 89.5245L99.5184 86.5551L105.071 82.7373L110.41 89.1003L113.4 97.3721L114.04 100.341H121.729H130.271L135.61 94.6148L143.939 92.918H152.054L157.606 94.6148L167.43 97.3721L189.213 149.972H0Z" fill="#E0E0E0"/>
<g opacity="0.3">
<path opacity="0.3" d="M60.8472 37.9189H34.3146C32.5384 37.9189 31.0984 39.349 31.0984 41.1131C31.0984 42.8772 32.5384 44.3073 34.3146 44.3073H60.8472C62.6235 44.3073 64.0634 42.8772 64.0634 41.1131C64.0634 39.349 62.6235 37.9189 60.8472 37.9189Z" fill="#E0E0E0"/>
<path opacity="0.3" d="M52.8067 44.3073H26.2741C24.4979 44.3073 23.058 45.7373 23.058 47.5015C23.058 49.2656 24.4979 50.6957 26.2741 50.6957H52.8067C54.583 50.6957 56.0229 49.2656 56.0229 47.5015C56.0229 45.7373 54.583 44.3073 52.8067 44.3073Z" fill="#E0E0E0"/>
<path opacity="0.3" d="M60.8472 50.6957H34.3146C32.5384 50.6957 31.0984 52.1258 31.0984 53.8899C31.0984 55.654 32.5384 57.0841 34.3146 57.0841H60.8472C62.6235 57.0841 64.0634 55.654 64.0634 53.8899C64.0634 52.1258 62.6235 50.6957 60.8472 50.6957Z" fill="#E0E0E0"/>
</g>
<g opacity="0.5">
<path opacity="0.5" d="M91.1896 142.615H48.2643L50.7779 30.4212H88.6761L91.1896 142.615Z" fill="url(#paint0_linear)"/>
</g>
<path d="M90.3525 142.615H49.1463L51.5574 30.4212H87.9393L90.3525 142.615Z" fill="white"/>
<g opacity="0.05">
<path opacity="0.05" d="M58.9957 142.615H49.1463L51.5574 30.4212H56.5824L58.9957 142.615Z" fill="black"/>
</g>
<path d="M42.9146 100.293H96.7849C96.7849 102.305 95.98 104.235 94.5474 105.657C93.1149 107.08 91.1718 107.879 89.1459 107.879H50.5536C48.5277 107.879 46.5846 107.08 45.1521 105.657C43.7195 104.235 42.9146 102.305 42.9146 100.293V100.293Z" fill="#CC2B5E"/>
<path d="M42.9146 62.5689H96.7849C96.7849 64.5811 95.98 66.5108 94.5474 67.9336C93.1149 69.3564 91.1718 70.1557 89.1459 70.1557H50.5536C48.5277 70.1557 46.5846 69.3564 45.1521 67.9336C43.7195 66.5108 42.9146 64.5811 42.9146 62.5689V62.5689Z" fill="#CC2B5E"/>
<path d="M69.8487 56.2739C75.2883 56.2739 79.698 51.8943 79.698 46.4919C79.698 41.0895 75.2883 36.7099 69.8487 36.7099C64.4091 36.7099 59.9994 41.0895 59.9994 46.4919C59.9994 51.8943 64.4091 56.2739 69.8487 56.2739Z" fill="#FFFFA5"/>
<path opacity="0.1" d="M89.5474 107.877H49.9493V108.475H89.5474V107.877Z" fill="black"/>
<path opacity="0.1" d="M88.7444 70.1472H50.5536V70.546H88.7444V70.1472Z" fill="black"/>
<path d="M80.7039 142.615H68.0399V125.346C68.0399 123.678 68.707 122.078 69.8945 120.899C71.0819 119.72 72.6925 119.057 74.3719 119.057V119.057C76.0511 119.058 77.6613 119.72 78.8487 120.9C80.036 122.079 80.7033 123.678 80.7039 125.346V142.615Z" fill="#E0E0E0"/>
<path d="M188.643 150H0.0982361C0.0982361 150 12.2711 122.215 30.7226 117.299C33.3823 116.575 36.1596 116.38 38.8955 116.724C43.3461 117.286 47.3716 119.604 50.2312 123.038C56.2792 130.3 74.8011 146.125 111.86 128.041C111.86 128.041 125.126 114.866 146.433 130.436C147.753 131.088 149.108 131.669 150.491 132.175C157.028 134.629 170.104 138.048 179.4 130.835C192.263 120.853 188.643 150 188.643 150Z" fill="#4D8AF0"/>
<g opacity="0.3">
<path opacity="0.3" d="M148.833 8.43726H122.301C120.525 8.43726 119.085 9.86735 119.085 11.6315C119.085 13.3956 120.525 14.8257 122.301 14.8257H148.833C150.61 14.8257 152.05 13.3956 152.05 11.6315C152.05 9.86735 150.61 8.43726 148.833 8.43726Z" fill="#E0E0E0"/>
<path opacity="0.3" d="M140.793 14.8257H114.26C112.484 14.8257 111.044 16.2557 111.044 18.0199C111.044 19.784 112.484 21.2141 114.26 21.2141H140.793C142.569 21.2141 144.009 19.784 144.009 18.0199C144.009 16.2557 142.569 14.8257 140.793 14.8257Z" fill="#E0E0E0"/>
<path opacity="0.3" d="M148.833 21.2141H122.301C120.525 21.2141 119.085 22.6441 119.085 24.4082C119.085 26.1723 120.525 27.6024 122.301 27.6024H148.833C150.61 27.6024 152.05 26.1723 152.05 24.4082C152.05 22.6441 150.61 21.2141 148.833 21.2141Z" fill="#E0E0E0"/>
</g>
<g opacity="0.3">
<path opacity="0.3" d="M176.169 52.9779H149.636C147.86 52.9779 146.42 54.408 146.42 56.1721C146.42 57.9362 147.86 59.3663 149.636 59.3663H176.169C177.945 59.3663 179.385 57.9362 179.385 56.1721C179.385 54.408 177.945 52.9779 176.169 52.9779Z" fill="#E0E0E0"/>
<path opacity="0.3" d="M168.128 59.3663H141.596C139.82 59.3663 138.38 60.7964 138.38 62.5605C138.38 64.3246 139.82 65.7547 141.596 65.7547H168.128C169.905 65.7547 171.345 64.3246 171.345 62.5605C171.345 60.7964 169.905 59.3663 168.128 59.3663Z" fill="#E0E0E0"/>
<path opacity="0.3" d="M176.169 65.7546H149.636C147.86 65.7546 146.42 67.1847 146.42 68.9488C146.42 70.7129 147.86 72.143 149.636 72.143H176.169C177.945 72.143 179.385 70.7129 179.385 68.9488C179.385 67.1847 177.945 65.7546 176.169 65.7546Z" fill="#E0E0E0"/>
</g>
<g opacity="0.3">
<path opacity="0.3" d="M135.578 54.9758H142.612C142.612 54.9758 139.962 59.6335 135.578 54.9758Z" fill="#030B44"/>
<path opacity="0.3" d="M136.003 56.9568L140.616 51.6819C140.616 51.6819 142.418 56.7235 136.003 56.9568Z" fill="#030B44"/>
</g>
<g opacity="0.3">
<path opacity="0.3" d="M110.453 69.5491H117.487C117.487 69.5491 114.837 74.2067 110.453 69.5491Z" fill="#030B44"/>
<path opacity="0.3" d="M110.878 71.5301L115.488 66.2552C115.488 66.2552 117.293 71.2968 110.878 71.5301Z" fill="#030B44"/>
</g>
<g opacity="0.3">
<path opacity="0.3" d="M101.353 14.849H108.898C108.898 14.849 106.055 19.8545 101.353 14.849Z" fill="#030B44"/>
<path opacity="0.3" d="M101.808 16.9763L106.756 11.3154C106.756 11.3154 108.691 16.7239 101.808 16.9763Z" fill="#030B44"/>
</g>
<g opacity="0.05">
<path opacity="0.05" d="M49.4901 107.848C49.7037 107.867 49.9279 107.877 50.15 107.877H57.8381L57.6758 100.293H49.6588L49.4901 107.848Z" fill="black"/>
</g>
<g opacity="0.05">
<path opacity="0.05" d="M57.2743 62.5626H50.8676L50.7031 70.1472H57.4367L57.2743 62.5626Z" fill="black"/>
</g>
<path d="M199.69 97.6012C199.775 97.6012 199.857 97.5676 199.917 97.508C199.977 97.4483 200.011 97.3674 200.011 97.283C200.011 97.1986 199.977 97.1177 199.917 97.0581C199.857 96.9984 199.775 96.9649 199.69 96.9649C199.605 96.9649 199.524 96.9984 199.464 97.0581C199.404 97.1177 199.37 97.1986 199.37 97.283C199.37 97.3674 199.404 97.4483 199.464 97.508C199.524 97.5676 199.605 97.6012 199.69 97.6012Z" fill="#4D8AF0"/>
<path d="M96.8853 22.5269C96.8853 29.9907 84.7359 36.0397 69.7483 36.0397C54.7608 36.0397 42.6114 29.9907 42.6114 22.5269C42.6114 15.0632 54.7608 0 69.7483 0C84.7359 0 96.8853 15.0653 96.8853 22.5269Z" fill="#CC2B5E"/>
<g opacity="0.05">
<path opacity="0.05" d="M42.4534 22.5269C42.4534 29.9907 54.6027 36.0397 69.5903 36.0397V0C54.6027 0 42.4534 15.0653 42.4534 22.5269Z" fill="black"/>
</g>
</g>
<defs>
<linearGradient id="paint0_linear" x1="69.727" y1="142.615" x2="69.727" y2="30.4212" gradientUnits="userSpaceOnUse">
<stop stop-color="#808080" stop-opacity="0.25"/>
<stop offset="0.54" stop-color="#808080" stop-opacity="0.12"/>
<stop offset="1" stop-color="#808080" stop-opacity="0.1"/>
</linearGradient>
<clipPath id="clip0">
<rect width="200" height="150" fill="white"/>
</clipPath>
</defs>
</svg>
